<?xml version="1.0" standalone="no"?><!DOCTYPE svg PUBLIC "-//W3C//DTD SVG 1.1//EN" "http://www.w3.org/Graphics/SVG/1.1/DTD/svg11.dtd"><svg t="1698224229865" class="icon" viewBox="0 0 1024 1024" version="1.1" xmlns="http://www.w3.org/2000/svg" p-id="11894" xmlns:xlink="http://www.w3.org/1999/xlink" width="200" height="200"><path d="M24.32 788.736c-0.4608-21.9648 10.24-35.84 28.672-46.08 36.8128-20.48 72.7552-42.5472 110.9504-65.0752-5.9392-17.4592-12.032-34.048-17.3056-51.2C91.8016 451.584 164.8128 256.512 318.9248 166.2976c48.2304-28.2624 101.5808-39.6288 156.1088-43.7248a1106.8416 1106.8416 0 0 1 458.496 62.5664c73.472 26.2144 82.432 40.6016 68.0448 118.0672a1198.08 1198.08 0 0 1-181.0432 446.8736c-137.472 207.8208-418.3552 202.9056-572.6208 45.6192-16.5376-16.7936-31.3856-35.4816-48.64-55.0912-36.864 21.7088-74.0352 42.8032-110.336 65.4336-18.176 11.3152-35.2256 13.6192-53.5552 2.2528l-11.0592-19.5584zM941.1584 267.9808c-7.3216-5.12-9.0624-6.4512-11.008-7.4752a74.1888 74.1888 0 0 0-10.24-4.6592c-153.1904-53.4016-310.016-78.6432-471.04-56.32a277.6576 277.6576 0 0 0-108.6464 39.8848C225.6384 312.9344 173.7216 460.8 210.6368 594.6368c4.0448 14.7456 9.5232 29.0816 15.36 46.08 69.4784-40.96 135.68-79.872 201.6256-119.2448a20.1728 20.1728 0 0 0 7.424-12.0832c13.4144-57.6 25.6-115.456 39.9872-172.8a31.1296 31.1296 0 0 1 46.592-18.2784c17.4592 10.24 19.8656 26.368 15.0528 45.0048-8.96 34.5088-17.5616 69.1712-27.6992 109.0048 11.6736-6.144 18.7392-9.5232 25.6-13.4144 37.632-22.0672 74.8544-44.9536 112.9472-66.1504 27.2896-15.36 55.4496 1.1776 55.2448 30.72 0 18.5344-12.2368 27.8016-26.1632 35.84l-197.2736 116.1216-19.8144 11.7248v8.3968c32.6144 7.9872 65.3824 15.36 97.8432 24.2176 27.2384 7.168 39.4752 24.7808 33.536 46.08s-22.784 28.2112-50.3808 20.48c-50.4832-14.08-100.7104-28.6208-151.2448-42.5984-6.8096-1.8944-15.872-4.6592-21.0944-1.7408-35.328 19.5584-69.9392 40.5504-106.1376 61.9008 6.5024 8.2944 10.9056 14.1312 15.36 19.7632 121.4464 147.8656 369.1008 161.8944 486.4-16.4352a1133.1072 1133.1072 0 0 0 130.2016-270.4896c18.3296-56.32 31.9488-113.7152 47.1552-168.96z" fill="#ffffff" p-id="11895"></path></svg>