<?xml version="1.0" standalone="no"?><!DOCTYPE svg PUBLIC "-//W3C//DTD SVG 1.1//EN" "http://www.w3.org/Graphics/SVG/1.1/DTD/svg11.dtd"><svg t="1698221880530" class="icon" viewBox="0 0 1024 1024" version="1.1" xmlns="http://www.w3.org/2000/svg" p-id="6440" xmlns:xlink="http://www.w3.org/1999/xlink" width="200" height="200"><path d="M54.613333 1002.666667c-9.386667 0-17.066667-7.68-17.066666-17.066667V38.4c0-9.386667 7.68-17.066667 17.066666-17.066667s17.066667 7.68 17.066667 17.066667v947.2c0 9.386667-7.68 17.066667-17.066667 17.066667zM683.52 1002.666667H682.666667c-9.386667 0-16.213333-7.68-16.213334-16.213334v-870.4c0-9.386667 7.68-16.213333 16.213334-16.213333h0.853333c9.386667 0 16.213333 7.68 16.213333 16.213333v870.4c0.853333 8.533333-6.826667 16.213333-16.213333 16.213334zM289.28 973.653333h-11.093333c-5.973333 0-11.093333-5.12-11.093334-11.093333V554.666667c0-5.973333 5.12-11.093333 11.093334-11.093334h11.093333c5.973333 0 11.093333 5.12 11.093333 11.093334v407.893333c0 5.973333-5.12 11.093333-11.093333 11.093333z" p-id="6441" fill="#ffffff"></path><path d="M746.666667 1019.733333c-74.24 0-149.333333-5.973333-197.973334-26.453333-117.76-47.786667-323.413333-12.8-372.906666 8.533333-57.173333 23.893333-123.733333 2.56-126.293334 1.706667-9.386667-2.56-13.653333-12.8-11.093333-21.333333 2.56-8.533333 12.8-13.653333 21.333333-11.093334 0.853333 0 58.026667 17.92 102.4-0.853333 59.733333-25.6 273.066667-59.733333 398.506667-8.533333 102.4 41.813333 344.746667 16.213333 407.04 9.386666V82.773333c0-4.266667-2.56-5.973333-3.413333-6.826666-1.706667-0.853333-4.266667-1.706667-6.826667 0-69.12 34.133333-250.88 76.8-440.32 43.52-9.386667-1.706667-15.36-10.24-13.653333-19.626667 1.706667-9.386667 10.24-15.36 19.626666-13.653333 181.76 32.426667 354.133333-7.68 419.84-40.106667 12.8-6.826667 28.16-5.973333 40.106667 1.706667 12.8 7.68 19.626667 21.333333 19.626667 35.84v918.186666l-14.506667 1.706667c-7.68 0.853333-123.733333 16.213333-241.493333 16.213333z" p-id="6442" fill="#ffffff"></path><path d="M779.093333 583.68c-52.906667 0-113.493333-4.266667-177.493333-17.066667-80.213333-18.773333-156.16 3.413333-157.013333 4.266667-9.386667 2.56-18.773333-2.56-21.333334-11.093333-2.56-9.386667 2.56-18.773333 11.093334-21.333334 3.413333-0.853333 86.186667-25.6 174.08-4.266666 203.093333 39.253333 370.346667-6.826667 372.053333-7.68 9.386667-2.56 18.773333 2.56 21.333333 11.946666 2.56 9.386667-2.56 18.773333-11.946666 21.333334-4.266667 0.853333-87.893333 23.893333-210.773334 23.893333zM285.866667 488.96L273.066667 476.16c-6.826667-7.68-176.64-182.613333-176.64-283.306667C96.426667 88.746667 180.053333 4.266667 283.306667 4.266667c103.253333 0 186.88 84.48 186.88 188.586666 0 100.693333-165.546667 275.626667-172.373334 283.306667l-11.946666 12.8z m-2.56-450.56c-84.48 0-152.746667 69.12-152.746667 154.453333 0 66.56 102.4 190.293333 155.306667 246.613334 51.2-56.32 151.04-180.053333 151.04-246.613334-0.853333-85.333333-69.12-154.453333-153.6-154.453333z" p-id="6443" fill="#ffffff"></path><path d="M290.133333 260.266667c-40.106667 0-72.533333-32.426667-72.533333-73.386667s32.426667-73.386667 72.533333-73.386667 72.533333 32.426667 72.533334 73.386667-32.426667 73.386667-72.533334 73.386667z m0-111.786667c-21.333333 0-38.4 17.066667-38.4 39.253333s17.066667 39.253333 38.4 39.253334 38.4-17.066667 38.4-39.253334-17.066667-39.253333-38.4-39.253333z" p-id="6444" fill="#ffffff"></path></svg>