<?xml version="1.0" standalone="no"?><!DOCTYPE svg PUBLIC "-//W3C//DTD SVG 1.1//EN" "http://www.w3.org/Graphics/SVG/1.1/DTD/svg11.dtd"><svg t="1698221105610" class="icon" viewBox="0 0 1024 1024" version="1.1" xmlns="http://www.w3.org/2000/svg" p-id="5009" id="mx_n_1698221105612" xmlns:xlink="http://www.w3.org/1999/xlink" width="200" height="200"><path d="M366.468085 987.06383a145.531915 36.93617 0 1 0 291.06383 0 145.531915 36.93617 0 1 0-291.06383 0Z" fill="#9B9B9B" p-id="5010"></path><path d="M906.723404 394.723404c0 218.042553-165.617021 357.446809-394.723404 586.553192C285.957447 755.234043 117.276596 612.765957 117.276596 394.723404a394.723404 394.723404 0 0 1 789.446808 0z" fill="#2c2c2c" p-id="5011" data-spm-anchor-id="a313x.search_index.0.i6.7f983a81OVqBs2" class="selected"></path><path d="M512 418.893617a19.06383 19.06383 0 0 1-14.297872-6.468085A654.468085 654.468085 0 0 0 442.382979 357.446809a116.085106 116.085106 0 1 1 162.382978-23.148937A110.468085 110.468085 0 0 1 581.617021 357.446809a708.93617 708.93617 0 0 0-55.319149 55.489361 19.06383 19.06383 0 0 1-14.297872 5.957447z m0-231.659574a77.276596 77.276596 0 0 0-46.468085 139.234042 505.87234 505.87234 0 0 1 46.468085 44.595745 505.87234 505.87234 0 0 1 46.468085-45.106383A77.276596 77.276596 0 0 0 512 187.234043z m193.361702 386.382978H318.638298a19.404255 19.404255 0 0 1-18.382979-25.531915L358.808511 374.468085a19.06383 19.06383 0 0 1 19.234042-13.106383h19.914894a19.404255 19.404255 0 0 1 0 38.638298h-6.978724l-44.93617 136.170213h332.425532l-44.93617-136.170213h-12.595745a19.404255 19.404255 0 0 1 0-38.638298h27.234043a19.234043 19.234043 0 0 1 17.021276 13.106383l58.553192 173.617021a19.234043 19.234043 0 0 1-18.382979 25.531915z m-173.957447-68.085106h-38.80851a9.531915 9.531915 0 0 1-9.531915-9.702128 9.531915 9.531915 0 0 1 9.531915-9.531915h38.80851a9.531915 9.531915 0 0 1 9.531915 9.531915 9.531915 9.531915 0 0 1-9.531915 9.702128z m-19.404255-212.425532a29.106383 29.106383 0 1 1 28.93617-28.93617 28.93617 28.93617 0 0 1-28.93617 28.93617z m0-37.787234a9.702128 9.702128 0 0 0-9.702128 9.702128 9.702128 9.702128 0 0 0 19.404256 0 9.702128 9.702128 0 0 0-9.702128-9.702128z" fill="#FFFFFF" p-id="5012"></path></svg>