<?xml version="1.0" standalone="no"?><!DOCTYPE svg PUBLIC "-//W3C//DTD SVG 1.1//EN" "http://www.w3.org/Graphics/SVG/1.1/DTD/svg11.dtd"><svg t="1698224584866" class="icon" viewBox="0 0 1024 1024" version="1.1" xmlns="http://www.w3.org/2000/svg" p-id="17258" xmlns:xlink="http://www.w3.org/1999/xlink" width="200" height="200"><path d="M889.42464 134.6176c-4.26752-4.3136-10.11456-6.69952-16.14848-6.61504l-273.95584 3.87712c-5.8048 0.08192-11.34976 2.432-15.45472 6.54976L134.53312 589.1712c-8.7104 8.73728-8.7104 22.90176 0 31.63776L402.43072 889.5488c4.35456 4.36736 10.0608 6.54976 15.76832 6.54976 5.70752 0 11.41504-2.1824 15.77088-6.54976l449.33632-450.74176c4.05888-4.07296 6.39616-9.5616 6.52672-15.3216l6.05312-272.6144C896.02304 144.79744 893.6896 138.9312 889.42464 134.6176zM845.43744 413.51552 418.20032 842.08896 181.84192 604.98816l427.1616-428.49792 241.77408-3.42144L845.43744 413.51552zM612.3392 500.48256 478.5664 543.6672l42.38208-134.19392c1.98144-7.30624-2.32064-15.61472-9.60256-18.272-8.93568-2.9888-17.216 1.33376-19.2064 9.30432l-42.38336 133.53088-44.04096-44.18176c-5.62688-5.64096-14.90048-5.64736-20.52736-0.00256-6.9568 6.98112-6.62016 15.94624-0.992 21.59104l51.98976 52.15232-33.11488 33.22112-51.98976-52.15232c-5.62688-5.64608-14.8992-5.64992-20.8576 0.32768-6.29376 6.31296-6.62144 15.94624-0.99456 21.58848l51.98976 52.1536-38.40768 38.53184c-5.62688 5.64352-5.9584 15.2768 0 21.25056 6.62272 6.64704 15.89248 5.98272 21.51936 0.33536l38.40896-38.52672 51.98976 52.14976c5.62688 5.64608 15.55968 5.64608 21.19296-0.00512 6.62016-6.63936 6.28864-16.27136 0.66048-21.91488l-51.98976-52.15232 33.11744-33.216 51.98848 52.1472c5.62688 5.64736 14.89536 6.31424 21.19168-0.00256 6.28736-6.30528 5.95584-15.93728 0.32768-21.58336l-43.38048-43.5136 133.7792-43.18208-0.33024 0.3328c7.616-2.3232 12.5824-10.6304 9.27104-18.5984C628.896 502.47808 619.95648 498.15936 612.3392 500.48256zM701.9648 416.60032c51.49312 0 93.38368-42.0224 93.38368-93.67808 0-51.6544-41.89056-93.67936-93.38368-93.67936-51.49568 0-93.38624 42.02368-93.38624 93.67936C608.57856 374.57792 650.46912 416.60032 701.9648 416.60032zM701.9648 273.98912c26.89792 0 48.77824 21.952 48.77824 48.93312 0 26.9824-21.8816 48.9344-48.77824 48.9344s-48.78208-21.952-48.78208-48.9344C653.18272 295.94112 675.06688 273.98912 701.9648 273.98912z" p-id="17259" fill="#ffffff"></path></svg>