<?xml version="1.0" standalone="no"?><!DOCTYPE svg PUBLIC "-//W3C//DTD SVG 1.1//EN" "http://www.w3.org/Graphics/SVG/1.1/DTD/svg11.dtd"><svg t="1698224290083" class="icon" viewBox="0 0 1024 1024" version="1.1" xmlns="http://www.w3.org/2000/svg" p-id="13949" xmlns:xlink="http://www.w3.org/1999/xlink" width="200" height="200"><path d="M281.583 161.025c3.157 7.773 10.644 12.486 18.546 12.486 2.507 0 5.057-0.474 7.522-1.476 10.24-4.158 15.167-15.83 11.01-26.068L292.128 80.64c-4.158-10.24-15.831-15.168-26.067-11.01-10.24 4.158-15.168 15.83-11.01 26.068l26.532 65.327zM78.551 290.17l64.954 27.433a19.946 19.946 0 0 0 7.776 1.582c7.802 0 15.216-4.591 18.441-12.23 4.3-10.18-0.467-21.918-10.647-26.217l-64.954-27.432c-10.18-4.299-21.92 0.467-26.217 10.648-4.3 10.18 0.467 21.918 10.647 26.217zM157.394 524.045c10.239-4.157 15.167-15.827 11.01-26.066-4.16-10.24-15.83-15.173-26.068-11.01l-65.328 26.533c-10.24 4.158-15.168 15.828-11.01 26.067 3.157 7.773 10.644 12.486 18.546 12.486a19.93 19.93 0 0 0 7.522-1.477l65.328-26.533zM651.36 321.847c2.507 0 5.056-0.474 7.522-1.475l63.406-25.752c10.24-4.158 15.168-15.83 11.01-26.068-4.158-10.24-15.83-15.167-26.068-11.01l-63.406 25.752c-10.239 4.158-15.167 15.83-11.01 26.068 3.157 7.773 10.644 12.485 18.546 12.485zM496.753 174.136a19.946 19.946 0 0 0 7.776 1.582c7.802 0 15.215-4.59 18.44-12.23l27.434-64.955c4.3-10.18-0.467-21.918-10.648-26.217-10.183-4.299-21.92 0.467-26.217 10.648l-27.433 64.955c-4.3 10.18 0.468 21.918 10.648 26.217z" p-id="13950" fill="#ffffff"></path><path d="M916.675 693.742c-23.939-24.434-54.676-40.053-88.026-45.03C821.645 526.162 722 428.018 598.812 423.293a202.19 202.19 0 0 0 0.762-17.345c0-110.18-89.638-199.816-199.817-199.816S199.94 295.767 199.94 405.947c0 56.262 22.967 108.317 62.912 145.645-33.985 18.2-57.158 54.059-57.158 95.232 0 1.676 0.039 3.355 0.118 5.031-66.42 18.163-114.362 79.391-114.362 149.852 0 85.654 69.745 155.34 155.475 155.34H806.11c40.853 0 79.538-16.08 108.928-45.28 29.591-29.397 45.89-68.352 45.89-109.686 0-40.734-15.715-79.208-44.253-108.339zM239.959 405.946c0-88.113 71.686-159.798 159.798-159.798 88.113 0 159.798 71.686 159.798 159.798 0 6.419-0.395 12.83-1.152 19.176-79.592 10.395-148.918 60.172-184.141 132.333-17.67-12.011-38.672-18.584-60.619-18.584-0.85 0-1.696 0.012-2.542 0.033-44.674-29.764-71.142-78.941-71.142-132.958z m646.876 477.432c-21.841 21.7-50.51 33.65-80.723 33.65H246.927c-63.663 0-115.457-51.733-115.457-115.32 0-57.347 42.757-106.452 99.455-114.225a20.012 20.012 0 0 0 16.724-24.552 68.228 68.228 0 0 1-1.935-16.107c0-34.076 25.219-62.364 57.97-67.198 1.01 0.156 2.025 0.242 3.036 0.242 2.081 0 4.146-0.328 6.119-0.96 0.27-0.002 0.535-0.02 0.805-0.02 20.524 0 39.736 9.135 52.71 25.064a20.007 20.007 0 1 0 34.44-6.14c27.649-80.568 103.49-134.7 188.72-134.7 110.011 0 199.51 89.457 199.51 199.41 0 0.838 0.02 1.657 0.041 2.473 0.014 0.545 0.035 1.088 0.024 1.647-0.224 10.998 8.47 20.114 19.465 20.41 30.166 0.812 58.411 13.135 79.534 34.697 21.166 21.605 32.823 50.134 32.823 80.333 0 30.594-12.102 59.466-34.076 81.296z" p-id="13951" fill="#ffffff"></path></svg>