<?xml version="1.0" standalone="no"?><!DOCTYPE svg PUBLIC "-//W3C//DTD SVG 1.1//EN" "http://www.w3.org/Graphics/SVG/1.1/DTD/svg11.dtd"><svg t="1698328440661" class="icon" viewBox="0 0 1024 1024" version="1.1" xmlns="http://www.w3.org/2000/svg" p-id="10366" xmlns:xlink="http://www.w3.org/1999/xlink" width="200" height="200"><path d="M213.333333 192m21.333334 0l320 0q21.333333 0 21.333333 21.333333l0 618.666667q0 21.333333-21.333333 21.333333l-320 0q-21.333333 0-21.333334-21.333333l0-618.666667q0-21.333333 21.333334-21.333333Z" fill="#D9ECFF" p-id="10367"></path><path d="M554.666667 874.666667H234.666667a42.666667 42.666667 0 0 1-42.666667-42.666667V213.333333a42.666667 42.666667 0 0 1 42.666667-42.666666h320a42.666667 42.666667 0 0 1 42.666666 42.666666v618.666667a42.666667 42.666667 0 0 1-42.666666 42.666667zM234.666667 213.333333v618.666667h320V213.333333z" fill="#196883" p-id="10368" data-spm-anchor-id="a313x.search_index.0.i38.7f983a81tzcaed" class=""></path><path d="M576 390.4m21.333333 0l213.333334 0q21.333333 0 21.333333 21.333333l0 420.266667q0 21.333333-21.333333 21.333333l-213.333334 0q-21.333333 0-21.333333-21.333333l0-420.266667q0-21.333333 21.333333-21.333333Z" fill="#FFFFFF" p-id="10369"></path><path d="M810.666667 874.666667H597.333333a42.666667 42.666667 0 0 1-42.666666-42.666667V411.733333a42.666667 42.666667 0 0 1 42.666666-42.666666h213.333334a42.666667 42.666667 0 0 1 42.666666 42.666666V832a42.666667 42.666667 0 0 1-42.666666 42.666667zM597.333333 411.733333V832h213.333334V411.733333z" fill="#196883" p-id="10370" data-spm-anchor-id="a313x.search_index.0.i37.7f983a81tzcaed" class=""></path><path d="M149.333333 832m21.333334 0l704 0q21.333333 0 21.333333 21.333333l0 0q0 21.333333-21.333333 21.333334l-704 0q-21.333333 0-21.333334-21.333334l0 0q0-21.333333 21.333334-21.333333Z" fill="#196883" p-id="10371" data-spm-anchor-id="a313x.search_index.0.i36.7f983a81tzcaed" class=""></path><path d="M298.666667 362.666667m21.333333 0l149.333333 0q21.333333 0 21.333334 21.333333l0 0q0 21.333333-21.333334 21.333333l-149.333333 0q-21.333333 0-21.333333-21.333333l0 0q0-21.333333 21.333333-21.333333Z" fill="#196883" p-id="10372" data-spm-anchor-id="a313x.search_index.0.i41.7f983a81tzcaed" class=""></path><path d="M298.666667 512m21.333333 0l149.333333 0q21.333333 0 21.333334 21.333333l0 0q0 21.333333-21.333334 21.333334l-149.333333 0q-21.333333 0-21.333333-21.333334l0 0q0-21.333333 21.333333-21.333333Z" fill="#196883" p-id="10373" data-spm-anchor-id="a313x.search_index.0.i40.7f983a81tzcaed" class=""></path><path d="M298.666667 661.333333m21.333333 0l149.333333 0q21.333333 0 21.333334 21.333334l0 0q0 21.333333-21.333334 21.333333l-149.333333 0q-21.333333 0-21.333333-21.333333l0 0q0-21.333333 21.333333-21.333334Z" fill="#196883" p-id="10374" data-spm-anchor-id="a313x.search_index.0.i39.7f983a81tzcaed" class=""></path><path d="M640 512m21.333333 0l85.333334 0q21.333333 0 21.333333 21.333333l0 0q0 21.333333-21.333333 21.333334l-85.333334 0q-21.333333 0-21.333333-21.333334l0 0q0-21.333333 21.333333-21.333333Z" fill="#196883" p-id="10375" data-spm-anchor-id="a313x.search_index.0.i42.7f983a81tzcaed" class="selected"></path><path d="M640 661.333333m21.333333 0l85.333334 0q21.333333 0 21.333333 21.333334l0 0q0 21.333333-21.333333 21.333333l-85.333334 0q-21.333333 0-21.333333-21.333333l0 0q0-21.333333 21.333333-21.333334Z" fill="#196883" p-id="10376" data-spm-anchor-id="a313x.search_index.0.i43.7f983a81tzcaed" class="selected"></path></svg>