<?xml version="1.0" standalone="no"?><!DOCTYPE svg PUBLIC "-//W3C//DTD SVG 1.1//EN" "http://www.w3.org/Graphics/SVG/1.1/DTD/svg11.dtd"><svg t="1697941999675" class="icon" viewBox="0 0 1204 1024" version="1.1" xmlns="http://www.w3.org/2000/svg" p-id="30116" xmlns:xlink="http://www.w3.org/1999/xlink" width="235.15625" height="200"><path d="M1198.077934 290.399786c-8.583245 2.145811-15.735949 6.437434-22.888653 11.444326-5.722163 6.437434-10.013786 14.305408-12.874867 22.888653-2.145811 4.291622-6.437434 5.722163-10.729056 4.291623-2.145811-0.71527-3.576352-2.145811-4.291623-4.291623-2.145811-7.867974-6.437434-15.020679-11.444326-20.742841-7.867974-5.722163-15.735949-10.013786-25.034465-12.874868-4.291622 0-7.152704-2.861082-7.152704-7.152704s2.861082-7.152704 7.152704-7.152704c8.583245-2.861082 17.16649-7.152704 24.319194-12.159597 5.006893-6.437434 9.298515-13.590138 12.159597-21.458112 2.145811-4.291622 6.437434-5.722163 10.729056-4.291623 2.145811 0.71527 3.576352 2.145811 4.291623 4.291623 2.861082 7.867974 7.152704 15.735949 12.159597 22.173383 7.152704 5.006893 15.020679 9.298515 23.603923 11.444326 3.576352 0.71527 5.722163 5.006893 5.006893 8.583245-0.71527 2.861082-2.861082 5.006893-5.006893 5.006893z m-76.533933 362.642097c2.145811-4.291622 6.437434-5.722163 10.729056-4.291622 2.145811 0.71527 3.576352 2.145811 4.291622 4.291622 2.861082 7.867974 7.152704 15.735949 12.159597 22.173383 7.152704 5.006893 15.020679 9.298515 23.603924 12.159597 4.291622 0 7.152704 2.861082 7.152704 7.152704s-2.861082 7.152704-7.152704 7.152704c-8.583245 2.145811-15.735949 6.437434-22.888653 11.444326-5.722163 6.437434-10.013786 14.305408-12.874868 22.888653-2.145811 4.291622-6.437434 5.722163-10.729056 4.291623-2.145811-0.71527-3.576352-2.145811-4.291622-4.291623-2.145811-7.867974-6.437434-15.020679-11.444327-20.742841-7.867974-5.722163-15.735949-10.013786-25.034464-12.874868-4.291622 0-7.152704-2.861082-7.152704-7.152704s2.861082-7.152704 7.152704-7.152704c8.583245-2.861082 17.16649-7.152704 24.319194-12.159597 5.722163-7.152704 9.298515-15.020679 12.159597-22.888653zM1029.274118 507.84199c-9.298515 0-16.451219-7.152704-16.45122-16.451219 0-9.298515 7.152704-16.451219 16.45122-16.45122 9.298515 0 16.451219 7.152704 16.451219 16.45122 0 9.298515-7.152704 16.451219-16.451219 16.451219z m7.867974 328.309118c0 12.159597-9.298515 21.458112-21.458112 21.458112s-21.458112-9.298515-21.458112-21.458112 9.298515-21.458112 21.458112-21.458113 21.458112 9.298515 21.458112 21.458113zM670.208373 808.255562c-225.310179 0-408.419403-183.109225-408.419403-408.419404 0-108.005832 42.916225-211.720041 119.450158-288.253974 11.444327-11.444327 29.326087-11.444327 40.770413 0l536.452806 537.168077c11.444327 11.444327 11.444327 29.326087 0 40.770413C881.928414 765.339337 778.214204 808.255562 670.208373 808.255562zM402.69724 173.095439c-125.172321 148.060975-107.290561 369.079531 40.770413 494.967123 130.894485 110.866913 323.302225 110.866913 454.19671 0L402.69724 173.095439z m484.238067-30.756628c-5.722163 0-10.729056-5.006893-10.729057-10.729056s5.006893-10.729056 10.729057-10.729056 10.729056 5.006893 10.729056 10.729056-5.006893 10.729056-10.729056 10.729056zM648.03499 284.677623c37.194061-35.04825 95.130964-32.902439 130.179214 3.576352 33.617709 35.76352 33.617709 90.839342 0 126.602862L648.03499 284.677623z m85.832449-238.185046c-7.152704 2.145811-14.305408 5.722163-20.027571 10.729056-5.006893 5.722163-8.583245 12.874867-11.444327 20.027571-1.430541 3.576352-5.722163 5.722163-9.298515 4.291623-2.145811-0.71527-3.576352-2.145811-4.291623-4.291623-2.145811-7.152704-5.722163-13.590138-10.013785-18.59703-6.437434-5.006893-14.305408-8.583245-22.173383-11.444327-3.576352-0.71527-5.722163-5.006893-4.291622-7.867975 0.71527-2.145811 2.145811-3.576352 4.291622-4.291622 7.867974-2.145811 15.020679-5.722163 21.458112-10.729056 5.006893-5.722163 8.583245-12.159597 10.729056-19.312301 1.430541-3.576352 5.722163-5.722163 9.298516-4.291623 2.145811 0.71527 3.576352 2.145811 4.291622 4.291623 2.145811 7.152704 6.437434 13.590138 10.729056 19.312301 6.437434 4.291622 13.590138 7.867974 20.742842 10.729056 3.576352 1.430541 5.006893 5.006893 4.291623 8.583245-0.71527 0.71527-2.145811 2.145811-4.291623 2.861082z m-358.350475 45.777306c-9.298515 0-16.451219-7.152704-16.451219-16.45122s7.152704-16.451219 16.451219-16.451219 16.451219 7.152704 16.45122 16.451219c0 8.583245-7.152704 16.451219-16.45122 16.45122z m6.437434 633.014311c10.729056 11.444327 10.729056 29.326087 0 40.055143l-84.401908 83.686638v115.873806h300.413572c15.735949-2.145811 30.041357 8.583245 32.187168 24.319194 2.145811 15.735949-8.583245 30.041357-24.319194 32.187168H268.941674c-15.735949 0-28.610816-12.874867-28.610817-28.610816V836.866378c0-7.867974 2.861082-15.020679 8.583245-20.027571l92.985153-92.269883c10.729056-10.729056 29.326087-10.729056 40.055143 0.71527z m-150.206786-137.331918c-7.152704 0-13.590138-5.722163-13.590137-13.590138 0-7.152704 5.722163-13.590138 13.590137-13.590138 7.152704 0 13.590138 5.722163 13.590138 13.590138 0 7.867974-5.722163 13.590138-13.590138 13.590138zM218.157475 85.832449c-5.722163 0-10.729056-4.291622-11.444327-10.729056 0-5.722163 4.291622-10.729056 10.729056-11.444327 5.722163 0 10.729056 4.291622 11.444327 10.729056v0.715271c0 5.722163-5.006893 10.729056-10.729056 10.729056z m-17.16649 404.843051c-10.729056 3.576352-20.027571 8.583245-29.326087 15.020679-7.152704 8.583245-12.874867 18.597031-16.451219 29.326087-2.145811 5.006893-8.583245 7.867974-13.590138 5.722163-2.145811-0.71527-4.291622-2.861082-5.722163-5.722163-3.576352-10.013786-8.583245-19.312301-15.020679-27.180276-10.013786-7.152704-20.742842-12.874867-32.187168-16.451219-5.006893-1.430541-7.867974-7.152704-6.437434-12.159597 0.71527-2.861082 3.576352-5.006893 6.437434-6.437434 11.444327-3.576352 21.458112-8.583245 31.471898-15.735949 6.437434-8.583245 12.159597-17.88176 15.020678-27.895546 2.145811-5.006893 8.583245-7.867974 13.590138-5.722163 2.145811 0.71527 4.291622 2.861082 5.722163 5.722163 3.576352 10.729056 8.583245 20.027571 15.735949 28.610816 9.298515 6.437434 19.312301 12.159597 30.041357 15.020679 5.006893 1.430541 7.867974 7.152704 6.437434 12.159597-0.71527 2.145811-2.861082 5.006893-5.722163 5.722163z m-113.012725 200.275715c2.145811 7.152704 6.437434 13.590138 10.729056 19.312301 6.437434 4.291622 13.590138 7.867974 20.742842 10.729056 3.576352 1.430541 5.006893 5.006893 4.291623 8.583245-0.71527 2.145811-2.145811 3.576352-4.291623 4.291622-7.152704 2.145811-14.305408 5.722163-20.742842 10.013786-5.006893 5.722163-8.583245 12.874867-11.444326 20.027571-1.430541 3.576352-5.722163 5.722163-9.298515 4.291623-2.145811-0.71527-3.576352-2.145811-4.291623-4.291623-2.145811-6.437434-5.722163-12.874867-10.013786-18.59703-6.437434-5.006893-14.305408-8.583245-22.173382-11.444327-3.576352-0.71527-5.722163-5.006893-4.291623-7.867974 0.71527-2.145811 2.145811-3.576352 4.291623-4.291623 7.867974-2.145811 15.020679-5.722163 21.458112-10.729056 5.006893-5.722163 8.583245-12.159597 10.729056-19.312301 1.430541-3.576352 5.006893-5.722163 9.298515-4.291622 2.145811 0 4.291622 1.430541 5.006893 3.576352z m-71.527041-316.864791C7.152704 373.371153 0 366.218449 0 357.635204c0-9.298515 7.152704-16.451219 16.451219-15.735949 8.583245 0 15.735949 7.152704 15.735949 16.45122 0.71527 8.583245-7.152704 15.735949-15.735949 15.735949z m57.936903 583.660653c7.867974-2.145811 15.020679-5.722163 21.458113-10.729056 5.006893-5.722163 8.583245-12.159597 11.444326-19.312301 1.430541-3.576352 5.722163-5.722163 9.298516-3.576352 1.430541 0.71527 2.861082 2.145811 3.576352 3.576352 2.145811 7.152704 6.437434 13.590138 10.729056 19.312301 6.437434 4.291622 13.590138 7.867974 20.742842 10.729056 3.576352 1.430541 5.006893 5.006893 4.291622 8.583245-0.71527 2.145811-2.145811 3.576352-4.291622 4.291622-7.152704 2.145811-14.305408 5.006893-20.742842 10.013786-5.006893 5.722163-8.583245 12.874867-11.444327 20.027572-1.430541 3.576352-5.722163 5.722163-9.298515 4.291622-2.145811-0.71527-3.576352-2.145811-4.291623-4.291622-2.145811-6.437434-5.722163-12.874867-10.013785-18.597031-6.437434-5.006893-14.305408-8.583245-22.173383-11.444327 0.71527-1.430541 17.16649-7.152704 0.71527-12.874867z m745.311766 18.597031c7.867974-2.145811 15.020679-5.722163 21.458112-10.729056 5.006893-5.722163 8.583245-12.159597 10.729057-19.312302 1.430541-3.576352 5.722163-5.722163 9.298515-4.291622 2.145811 0.71527 3.576352 2.145811 4.291622 4.291622 2.145811 7.152704 6.437434 13.590138 10.729056 19.312302 6.437434 4.291622 13.590138 7.867974 20.742842 10.729056 3.576352 1.430541 5.006893 5.006893 4.291623 8.583245-0.71527 2.145811-2.145811 3.576352-4.291623 4.291622-7.152704 2.145811-14.305408 5.722163-20.027571 10.013786-5.006893 5.722163-8.583245 12.874867-11.444327 20.027571-1.430541 3.576352-5.722163 5.722163-9.298515 4.291623-2.145811-0.71527-3.576352-2.145811-4.291622-4.291623-2.145811-6.437434-5.722163-12.874867-10.013786-18.59703-6.437434-5.006893-14.305408-8.583245-22.173383-11.444327-3.576352-0.71527-5.722163-4.291622-5.006893-7.867974 1.430541-2.861082 2.861082-4.291622 5.006893-5.006893z" fill="#495FA9" p-id="30117"></path></svg>