<?xml version="1.0" standalone="no"?><!DOCTYPE svg PUBLIC "-//W3C//DTD SVG 1.1//EN" "http://www.w3.org/Graphics/SVG/1.1/DTD/svg11.dtd"><svg t="1697649066970" class="icon" viewBox="0 0 1024 1024" version="1.1" xmlns="http://www.w3.org/2000/svg" p-id="2697" xmlns:xlink="http://www.w3.org/1999/xlink" width="200" height="200"><path d="M762.09859108 118.07631908l-124.13758999 207.81654387" fill="#49DAF2" p-id="2698"></path><path d="M637.96100109 341.9106165c-2.76168163 0-5.66144737-0.69042042-8.14696086-2.20934532-7.59462453-4.55677472-10.08013802-14.36074457-5.52336328-21.95536909l124.27567407-207.95462795c4.55677472-7.59462453 14.36074457-10.08013802 21.95536908-5.52336329s10.08013802 14.36074457 5.5233633 21.9553691l-124.27567408 207.95462793c-3.1759339 4.97102697-8.42312903 7.7327086-13.80840823 7.73270862z" fill="#4C466D" p-id="2699"></path><path d="M736.41495177 296.89520566c10.35630617-17.39859437 4.69485881-40.04438386-12.70373557-50.40069004l-56.47638967-33.69251607c-17.39859437-10.35630617-40.04438386-4.69485881-50.40069003 12.70373556l119.58081527 71.38947055z" fill="#49DAF2" p-id="2700"></path><path d="M648.59347541 207.55480442c6.35186779 0 12.84181965 1.65700898 18.7794352 5.24719513l56.47638968 33.69251607c17.39859437 10.35630617 23.06004175 33.14017975 12.70373557 50.40069004L616.8341365 225.36765103c6.90420412-11.46097883 19.19368743-17.81284661 31.75933891-17.81284661m0-32.03550709c-24.1647144 0-46.8105039 12.84181965-59.09998721 33.41634791-9.11354943 15.18924905-4.14252247 34.79718875 11.04672658 43.91073817l119.58081529 71.52755464c4.97102697 3.0378498 10.63247434 4.55677472 16.43200579 4.55677471 2.62359757 0 5.24719513-0.27616816 7.87079268-0.96658858 8.28504494-2.07126124 15.32733314-7.31845635 19.60793969-14.63691271 19.46985561-32.58784341 8.83738127-74.8415726-23.75046215-94.31142822L683.80491642 185.32326717c-10.77055842-6.48995186-22.92195766-9.80396985-35.21144101-9.80396984z" fill="#4C466D" p-id="2701"></path><path d="M693.19463402 140.5840245l78.98409507 47.08667207" fill="#49DAF2" p-id="2702"></path><path d="M772.17872909 203.6884501c-2.76168163 0-5.66144737-0.69042042-8.14696086-2.2093453l-78.84601098-47.08667206c-7.59462453-4.55677472-10.08013802-14.36074457-5.52336331-21.95536909s14.36074457-10.08013802 21.95536909-5.5233633l78.846011 47.08667207c7.59462453 4.55677472 10.08013802 14.36074457 5.52336329 21.95536907-3.0378498 4.97102697-8.42312903 7.7327086-13.80840823 7.73270861z" fill="#4C466D" p-id="2703"></path><path d="M196.62908479 269.80448956l211.72156173 126.49054276-51.77186499 86.65604669-211.72156171-126.49054275z" fill="#49DAF2" p-id="2704"></path><path d="M196.64427405 269.83072554l211.68289816 126.48501939-51.78153086 86.5787196-211.68289817-126.48501939 51.78153087-86.5787196m0-32.03550711c-2.62359757 0-5.24719513 0.27616816-7.8707927 0.96658859-8.28504494 2.07126124-15.32733314 7.31845635-19.60793969 14.63691271L117.38401082 339.97743935c-9.11354943 15.18924905-4.14252247 34.79718875 11.04672657 43.91073816L340.11363556 510.37319691c4.97102697 3.0378498 10.63247434 4.55677472 16.43200579 4.55677471 2.62359757 0 5.24719513-0.27616816 7.8707927-0.96658856 8.28504494-2.07126124 15.32733314-7.31845635 19.60793968-14.63691273l51.78153087-86.57871961c9.11354943-15.18924905 4.14252247-34.79718875-11.04672658-43.91073818L213.07627985 242.35199316c-4.97102697-3.0378498-10.77055842-4.55677472-16.4320058-4.55677473z" fill="#4C466D" p-id="2705"></path><path d="M383.88628964 751.05375236c-48.19134474-28.85957319-64.20909827-91.96399882-35.34952505-140.15534353L503.88135718 351.02416593c28.85957319-48.19134474 91.96399882-64.20909827 140.15534353-35.34952507 48.19134474 28.85957319 64.20909827 91.96399882 35.34952507 140.15534353L524.17971727 715.7042273c-28.85957319 48.3294288-91.96399882 64.20909827-140.29342763 35.34952506z" fill="#38C9F1" p-id="2706"></path><path d="M591.97900169 301.3138963c17.81284661 0 35.76377732 4.69485881 52.19578311 14.36074456 48.19134474 28.85957319 64.20909827 91.96399882 35.34952507 140.15534353L524.17971727 715.7042273c-19.05560336 31.89742302-53.1623717 49.71026963-88.09764452 49.71026963-17.81284661 0-35.76377732-4.69485881-52.19578311-14.36074457-48.19134474-28.85957319-64.20909827-91.96399882-35.34952505-140.15534353L503.88135718 351.02416593c19.05560336-32.03550709 53.1623717-49.71026963 88.09764451-49.71026963m0-32.03550709c-47.22475615 0-91.41166249 24.9932189-115.43829282 65.31377093L321.19611629 594.46640303c-37.97312263 63.51867787-17.12242621 146.09295908 46.39625165 184.06608172 20.71261235 12.42756741 44.46307451 18.91751926 68.48970481 18.91751926 47.22475615 0 91.41166249-24.9932189 115.43829282-65.31377091l155.3445926-259.8742429c18.36518295-30.65466627 23.61237808-66.69461175 14.7749968-101.62988458-8.83738127-34.79718875-30.5165822-64.0710142-61.17124845-82.43619714-20.71261235-12.42756741-44.46307451-18.91751926-68.48970483-18.91751927z" fill="#4C466D" p-id="2707"></path><path d="M161.29474898 307.38959593L443.67669728 476.1283445" fill="#49DAF2" p-id="2708"></path><path d="M153.01522739 321.19938499l16.43062496-27.49944499 282.34052308 168.70146589-16.4292441 27.49944497z" fill="#4C466D" p-id="2709"></path><path d="M269.00033318 296.06670117l-66.14227543 110.88151809" fill="#49DAF2" p-id="2710"></path><path d="M189.03998363 398.65765097l66.20717495-110.84009288 27.50220667 16.42786328-66.20579409 110.84009287z" fill="#4C466D" p-id="2711"></path><path d="M349.50335315 344.11996181l-66.14227542 110.88151809" fill="#49DAF2" p-id="2712"></path><path d="M269.62171154 446.8158555l66.20717493-110.84009285 27.50220668 16.42786327-66.20717492 110.84009285z" fill="#4C466D" p-id="2713"></path><path d="M841.53974447 772.64872199l-211.72156172-126.49054276 51.77186498-86.65604668 211.72156173 126.49054276z" fill="#49DAF2" p-id="2714"></path><path d="M681.5955711 559.53113022l211.68289817 126.48501939-51.78153086 86.5787196-211.68289818-126.4850194 51.78153087-86.57871959m0-32.03550711c-2.62359757 0-5.24719513 0.27616816-7.87079269 0.96658859-8.28504494 2.07126124-15.32733314 7.31845635-19.60793969 14.63691272l-51.78153086 86.57871959c-9.11354943 15.18924905-4.14252247 34.79718875 11.04672657 43.91073819l211.68289818 126.48501938c4.97102697 3.0378498 10.63247434 4.55677472 16.4320058 4.55677472 2.62359757 0 5.24719513-0.27616816 7.87079269-0.96658859 8.28504494-2.07126124 15.32733314-7.31845635 19.60793968-14.63691271l51.78153086-86.5787196c9.11354943-15.18924905 4.14252247-34.79718875-11.04672658-43.91073818l-211.68289816-126.48501939c-4.97102697-3.0378498-10.63247434-4.55677472-16.4320058-4.55677472z" fill="#4C466D" p-id="2715"></path><path d="M876.98454756 735.03599883L594.60259925 566.29725024" fill="#49DAF2" p-id="2716"></path><path d="M586.32583936 580.14570286l16.43200578-27.49944499 282.34052309 168.70008503-16.43200579 27.49944498z" fill="#4C466D" p-id="2717"></path><path d="M835.83549103 634.64887098l-66.14227541 110.88151809" fill="#49DAF2" p-id="2718"></path><path d="M755.90966252 737.28953104l66.20717494-110.84009286 27.50220667 16.42786326-66.20717495 110.84009286z" fill="#4C466D" p-id="2719"></path><path d="M755.33247105 586.59561034l-66.14227542 110.8815181" fill="#49DAF2" p-id="2720"></path><path d="M675.33069629 689.13408818l66.2057941-110.84009286 27.50358752 16.4292441-66.20717496 110.84009287z" fill="#4C466D" p-id="2721"></path><path d="M652.04557748 320.921836c0.27616816 0.27616816 0.55233633 0.41425225 0.96658859 0.69042039-0.41425225-0.13808409-0.69042042-0.41425225-0.96658859-0.69042039zM365.79727487 679.11194549L572.09489383 333.76365565c14.7749968-24.71705073 47.22475615-32.86401158 71.94180688-18.08901479-48.19134474-28.85957319-111.29577034-12.97990373-140.15534353 35.34952507L348.67484866 610.89840883c-28.85957319 48.19134474-12.97990373 111.29577034 35.34952507 140.15534353-24.85513482-14.7749968-33.00209567-47.22475615-18.22709886-71.94180687zM392.44750276 755.472443c0.27616816 0.13808409 0.69042042 0.27616816 0.96658857 0.55233632-0.41425225-0.13808409-0.69042042-0.27616816-0.96658857-0.55233632z" fill="#49BCEA" p-id="2722"></path><path d="M635.6135717 311.11786614c-0.27616816-0.13808409-0.69042042-0.27616816-0.96658859-0.55233633 0.27616816 0.27616816 0.55233633 0.41425225 0.96658859 0.55233633zM455.82809653 732.96473758l206.29761897-345.34828985c14.7749968-24.71705073 6.62803595-57.16681008-18.08901479-71.94180687 48.19134474 28.85957319 64.20909827 91.96399882 35.34952507 140.15534353L524.17971727 715.7042273c-28.85957319 48.19134474-91.96399882 64.20909827-140.15534354 35.34952506 24.71705073 14.7749968 57.02872598 6.62803595 71.8037228-18.08901478zM376.01549696 745.66847316c-0.27616816-0.27616816-0.55233633-0.41425225-0.96658858-0.69042041 0.27616816 0.27616816 0.55233633 0.55233633 0.96658858 0.69042041z" fill="#49DAF2" p-id="2723"></path><path d="M337.21386983 578.86290173l218.58710229 130.62754186" fill="#49DAF2" p-id="2724"></path><path d="M329.1083342 592.5608427l16.4320058-27.50358751 218.71413965 130.66896708-16.43062496 27.50220667z" fill="#4C466D" p-id="2725"></path><path d="M504.95093438 532.24460534a43.77265408 43.77265408 0 1 0 58.57697443-65.06088787 43.77265408 43.77265408 0 1 0-58.57697443 65.06088787Z" fill="#D7F7FF" p-id="2726"></path><path d="M534.25985527 455.96806848c10.49439025 0 20.98878051 3.72827022 29.27382547 11.32289475 17.9509307 16.15583763 19.46985561 43.91073817 3.31401796 61.86166888-8.69929718 9.66588576-20.57452827 14.49882864-32.58784343 14.49882864-10.49439025 0-20.98878051-3.72827022-29.27382544-11.32289477-17.9509307-16.15583763-19.46985561-43.91073817-3.31401797-61.86166886 8.69929718-9.66588576 20.57452827-14.49882864 32.58784341-14.49882864m0-32.03550709c-21.40303275 0-41.97756103 9.11354943-56.33830557 25.13130297-13.53224006 15.05116498-20.43644418 34.52102059-19.33177152 54.68129659 1.10467265 20.16027601 9.94205392 38.80162713 24.9932189 52.33386721 13.9464923 12.56565149 31.89742302 19.46985561 50.67685819 19.46985561 21.40303275 0 41.97756103-9.11354943 56.33830559-25.131303 13.53224006-15.05116498 20.43644418-34.52102059 19.33177152-54.68129659-1.10467265-20.16027601-9.94205392-38.80162713-24.9932189-52.33386719-13.9464923-12.56565149-31.89742302-19.46985561-50.67685821-19.4698556z" fill="#4C466D" p-id="2727"></path><path d="M577.89442528 500.43114298c-1.79509307 3.45210207-3.72827022 6.90420412-6.48995185 9.94205393-16.15583763 17.9509307-43.91073817 19.46985561-61.86166889 3.31401797-9.80396985-8.83738127-14.49882864-20.98878051-14.36074455-33.14017975-8.5612131 17.12242621-5.10911105 38.52545897 9.80396984 51.91961495 17.9509307 16.15583763 45.70583125 14.7749968 61.86166887-3.31401797 7.31845635-8.28504494 10.90864251-18.50326702 11.04672658-28.72148913z" fill="#C1E6EA" p-id="2728"></path><path d="M220.11856803 699.27222149c0.8285045 19.33177153-22.09345317 111.57193851-58.82381905 113.09086342 36.86844997-1.51892491 66.97077991 82.43619714 68.07545257 107.84366827-1.10467265-25.40747114 24.85513482-111.71002258 58.82381906-113.0908634-33.96868425 1.24275675-67.108864-85.33596286-68.07545258-107.84366829z" fill="#FFFFFF" p-id="2729"></path><path d="M229.37020155 936.08642267c-8.5612131 0-15.6035013-6.76612003-16.01775355-15.32733316-0.41425225-9.3897176-7.18037229-34.52102059-18.91751926-57.30489415-13.53224006-26.37405971-26.23597565-35.48760915-32.58784343-35.07335691-8.97546534 0.27616816-16.29392172-6.48995186-16.70817396-15.32733312v-0.69042042c0-8.5612131 6.76612003-15.6035013 15.32733313-16.01775355 20.2983601-0.8285045 44.32499042-76.63666569 43.49648593-96.38268944-0.41425225-8.83738127 6.48995186-16.29392172 15.32733313-16.70817397 8.5612131-0.27616816 16.29392172 6.48995186 16.70817395 15.32733315 0.27616816 8.00887677 7.59462453 32.58784341 19.88410786 56.20022149 13.9464923 26.78831197 26.37405971 36.31611363 31.48317077 36.31611364h0.13808408c8.69929718-0.41425225 16.29392172 6.48995186 16.70817397 15.32733315v0.6904204c0 8.5612131-6.76612003 15.6035013-15.32733314 16.01775354-18.08901478 0.69042042-44.60115858 70.97521831-43.49648593 96.38268945v0.69042041c0 8.5612131-6.76612003 15.6035013-15.32733314 16.01775355-0.27616816-0.13808409-0.55233633-0.13808409-0.69042041-0.13808406z m-34.24485241-125.6565149c9.94205392 8.83738127 19.19368743 21.67920092 27.75490055 38.38737486 1.38084082 2.76168163 2.89976573 5.66144737 4.28060654 8.6992972 6.90420412-18.36518295 16.15583763-36.45419773 27.89298463-49.15793331-9.52780169-8.97546534-18.64135111-21.817285-27.47873238-38.80162712-1.65700898-3.1759339-3.1759339-6.35186779-4.83294288-9.66588577-6.62803595 18.50326702-15.74158539 37.28270222-27.61681646 50.53877414z" fill="#4C466D" p-id="2730"></path><path d="M427.65894374 127.60412076c-0.13808409 13.9464923-19.88410785 79.67451549-46.39625164 79.5364314 26.65022788 0.13808409 45.42966308 61.86166887 45.29157898 80.08876774 0.13808409-18.36518295 21.817285-79.67451549 46.39625165-79.5364314-24.57896666 0-45.42966308-63.65676193-45.29157899-80.08876774z" fill="#FFFFFF" p-id="2731"></path><path d="M426.55427108 303.24707345s-0.13808409 0 0 0c-8.97546534 0-16.01775355-7.18037229-16.01775354-16.01775355v-0.13808407c0.13808409-19.05560336-18.91751926-63.9329301-29.41190954-64.0710142-8.83738127 0-15.87966947-7.18037229-15.87966947-16.01775354v-0.13808409c0-8.83738127 7.18037229-15.87966947 16.01775357-15.87966946h0.13808406c10.35630617 0 30.10232993-48.19134474 30.37849812-63.65676194 0-8.83738127 7.18037229-15.87966947 16.01775354-15.87966947h0.13808409c8.83738127 0 15.87966947 7.31845635 15.87966946 16.15583763-0.13808409 14.49882864 18.7794352 61.30933253 29.54999361 64.07101419 0.41425225 0 0.8285045 0 1.24275673 0.13808408 8.28504494 0.69042042 14.63691274 7.59462453 14.49882865 16.01775356 0 8.83738127-7.18037229 15.87966947-16.2939217 15.87966946-10.21822208 1.79509307-30.24041403 46.67241982-30.37849812 63.65676195 0 8.83738127-7.04228819 15.87966947-15.87966946 15.87966945zM411.91735837 207.14055216c6.07569962 6.90420412 11.18481067 15.32733314 15.32733313 24.16471441 4.97102697-9.80396985 10.08013802-17.81284661 15.6035013-24.02663032-5.3852792-6.35186779-10.49439025-14.63691274-15.32733315-24.71705074-4.28060655 9.11354943-9.3897176 17.67476253-15.60350128 24.57896665z" fill="#4C466D" p-id="2732"></path><path d="M206.72441205 887.34274161c-68.07545259 0-121.51399243-10.08013802-152.72099502-30.5165822-19.33177153-12.70373557-30.5165822-29.13574137-33.00209568-48.74368104-9.25163351-70.83713422 37.28270222-123.72333775 165.70089877-188.76094052 7.87079269-4.00443838 17.53667845-0.8285045 21.54111684 7.0422882 4.00443838 7.87079269 0.8285045 17.53667845-7.04228821 21.54111683-131.45604637 66.41844358-154.37800401 110.46726585-148.44038846 156.035013 1.38084082 10.08013802 7.45654045 18.64135111 18.77943518 26.09789155 65.45185502 42.9441496 266.0880266 29.82616178 477.21858844-31.2070026C823.40792363 719.57058161 978.33826398 601.92294348 969.5008827 534.12365906c-5.5233633-42.1156451-75.11774077-62.55208928-191.24645399-56.33830557-8.69929718 0.55233633-16.29392172-6.2137837-16.84625804-15.05116498-0.41425225-8.83738127 6.2137837-16.43200579 15.05116498-16.84625804 175.36678453-9.52780169 219.00135453 40.45863612 224.6628019 84.09320613 12.70373557 97.34927803-169.84342124 220.52027943-443.66415645 299.6424586-131.73221452 38.11120672-255.59363635 57.7191464-350.73356905 57.71914641z" fill="#4C466D" p-id="2733"></path><path d="M94.60013722 420.7566275c-0.13808409 16.01775355-22.64578949 90.99741024-53.0242876 90.85932614 30.3784981 0.27616816 51.91961495 70.56096607 51.78153086 91.54974657 0.13808409-20.98878051 24.9932189-90.99741024 53.02428762-90.85932614-28.0310687-0.13808409-51.91961495-72.90839547-51.78153088-91.54974657z" fill="#FFFFFF" p-id="2734"></path><path d="M93.35738048 619.18345377s-0.13808409 0 0 0c-8.83738127 0-16.01775355-7.18037229-16.01775355-16.01775356v-0.13808407c0-7.45654045-4.41869063-27.89298463-12.97990373-46.81050391-10.21822208-22.50770542-19.46985561-28.58340503-22.92195766-28.58340503-8.83738127 0-15.87966947-7.18037229-15.87966948-16.01775356v-0.13808407c0-8.83738127 7.18037229-15.87966947 16.01775356-15.87966946h0.13808408c13.80840823 0 36.86844997-57.85723049 36.86844998-74.9796567 0-8.83738127 7.18037229-15.87966947 16.01775354-15.87966948h0.13808409c8.83738127 0 15.87966947 7.31845635 15.87966945 16.15583764 0 5.5233633 4.55677472 25.68363931 13.80840824 45.84391533 11.18481067 24.30279849 20.2983601 29.54999362 22.09345316 29.54999361 8.83738127 0 15.87966947 7.18037229 15.87966947 16.01775356v0.13808407c0 8.83738127-7.18037229 15.87966947-16.01775353 15.87966947h-0.1380841c-12.15139925 0-36.7303659 53.71470801-36.86844997 74.97965669-0.13808409 8.83738127-7.18037229 15.87966947-16.01775355 15.87966947z m-19.88410785-107.7055842c6.76612003 7.18037229 13.53224006 17.26051028 20.02219194 31.62125485 0.13808409 0.41425225 0.41425225 0.8285045 0.55233633 1.24275674 5.66144737-12.01331517 12.70373557-23.61237808 20.9887805-32.31167526-7.04228819-7.87079269-13.53224006-18.36518295-19.74602377-31.75933893-0.27616816-0.69042042-0.69042042-1.38084082-0.96658858-2.07126124-5.3852792 12.28948332-12.42756741 24.1647144-20.85069642 33.27826384z" fill="#4C466D" p-id="2735"></path><path d="M932.35626457 482.3421282m-50.95302637 0a50.95302637 50.95302637 0 1 0 101.90605273 0 50.95302637 50.95302637 0 1 0-101.90605273 0Z" fill="#F7554A" p-id="2736"></path><path d="M932.35626457 431.38910183c28.1691528 0 50.95302637 22.78387358 50.95302636 50.95302637S960.52541735 533.29515457 932.35626457 533.29515457 881.4032382 510.51128099 881.4032382 482.3421282c-0.13808409-28.1691528 22.78387358-50.95302637 50.95302637-50.95302637m0-32.0355071c-45.70583125 0-82.98853347 37.28270222-82.98853347 82.98853347s37.28270222 82.98853347 82.98853347 82.98853346 82.98853347-37.28270222 82.98853346-82.98853346-37.28270222-82.98853347-82.98853346-82.98853347z" fill="#4C466D" p-id="2737"></path></svg>