<?xml version="1.0" standalone="no"?><!DOCTYPE svg PUBLIC "-//W3C//DTD SVG 1.1//EN" "http://www.w3.org/Graphics/SVG/1.1/DTD/svg11.dtd"><svg t="1697636424422" class="icon" viewBox="0 0 1024 1024" version="1.1" xmlns="http://www.w3.org/2000/svg" p-id="4578" id="mx_n_1697636424424" xmlns:xlink="http://www.w3.org/1999/xlink" width="200" height="200"><path d="M510.997333 64c175.466667 0 319.018667 143.552 319.018667 318.997333 0 59.818667-15.957333 115.626667-43.882667 163.498667-19.925333 35.882667-47.850667 79.744-87.722666 131.584-34.666667 44.16-79.338667 103.253333-137.898667 177.301333C643.050667 862.549333 704 887.573333 704 917.333333c0 35.349333-85.973333 64-192 64s-192-28.650667-192-64c0-29.482667 59.84-54.314667 141.269333-61.738666-59.584-74.154667-106.112-133.333333-137.685333-177.514667a2459.285333 2459.285333 0 0 1-87.722667-131.584A323.264 323.264 0 0 1 192 382.997333C192 207.573333 335.552 64 510.997333 64z m3.989334 105.173333c-119.36 0-213.845333 94.464-213.845334 213.824 0 114.389333 94.506667 213.845333 208.874667 213.845334 119.36 0 213.845333-99.456 218.816-213.845334 0-119.36-94.485333-213.845333-213.845333-213.845333z m-6.784 302.805334c11.029333 0 20.736 3.306667 28.522666 11.2 7.125333 7.253333 11.008 16.490667 11.008 27.690666 0 11.84-3.882667 21.077333-11.008 28.309334-7.786667 7.253333-17.493333 11.2-28.522666 11.2-11.008 0-20.074667-3.946667-27.861334-11.2-7.765333-7.893333-11.008-17.109333-11.008-28.309334 0-11.2 3.242667-20.437333 11.008-27.690666 7.786667-7.893333 16.853333-11.2 27.861334-11.2zM508.522667 234.666667a28.608 28.608 0 0 1 28.586666 30.08l-7.786666 151.296a21.141333 21.141333 0 0 1-21.12 20.053333 21.077333 21.077333 0 0 1-21.056-20.053333l-7.296-151.274667A28.714667 28.714667 0 0 1 508.544 234.666667z" fill="#592525" p-id="4579"></path></svg>