<?xml version="1.0" standalone="no"?><!DOCTYPE svg PUBLIC "-//W3C//DTD SVG 1.1//EN" "http://www.w3.org/Graphics/SVG/1.1/DTD/svg11.dtd"><svg t="1697903273937" class="icon" viewBox="0 0 1024 1024" version="1.1" xmlns="http://www.w3.org/2000/svg" p-id="2350" xmlns:xlink="http://www.w3.org/1999/xlink" width="200" height="200"><path d="M791.272727 333.265455l83.572364 61.300363a23.272727 23.272727 0 1 1-27.508364 37.515637L814.545455 408.040727V808.96a69.818182 69.818182 0 0 1-69.818182 69.818182H279.272727a69.818182 69.818182 0 0 1-69.818182-69.818182V408.040727l-32.791272 24.040728a23.272727 23.272727 0 1 1-27.508364-37.515637L484.468364 148.642909a46.545455 46.545455 0 0 1 55.063272 0L744.727273 299.124364V227.141818a23.272727 23.272727 0 0 1 46.545454 0v106.123637z m-535.272727 40.657454V808.96a23.272727 23.272727 0 0 0 23.272727 23.272727h116.363637v-162.909091a116.363636 116.363636 0 0 1 232.727272 0v162.909091h116.363637a23.272727 23.272727 0 0 0 23.272727-23.272727V373.922909L512 186.181818l-256 187.741091z m186.181818 458.309818h139.636364v-162.909091a69.818182 69.818182 0 1 0-139.636364 0v162.909091z" fill="#196883" p-id="2351"></path></svg>