<?xml version="1.0" standalone="no"?><!DOCTYPE svg PUBLIC "-//W3C//DTD SVG 1.1//EN" "http://www.w3.org/Graphics/SVG/1.1/DTD/svg11.dtd"><svg t="1697808704449" class="icon" viewBox="0 0 1024 1024" version="1.1" xmlns="http://www.w3.org/2000/svg" p-id="2433" xmlns:xlink="http://www.w3.org/1999/xlink" width="200" height="200"><path d="M328.2 508.2H92.9c-17.1 0-31-14-31-31 0-17.1 14-31 31-31h235.3c17.1 0 31 14 31 31s-14 31-31 31z" fill="#196883" p-id="2434" data-spm-anchor-id="a313x.search_index.0.i1.7f983a81QfDPqK" class="selected"></path><path d="M575.7 521.8m-366.9 0a366.9 366.9 0 1 0 733.8 0 366.9 366.9 0 1 0-733.8 0Z" fill="#FFFC99" p-id="2435"></path><path d="M498 900c-52.2 0-102.9-10.2-150.6-30.4-46.1-19.5-87.4-47.4-123-82.9s-63.4-76.9-82.9-123c-20.2-47.7-30.4-98.4-30.4-150.6 0-52.2 10.2-102.9 30.4-150.6 19.5-46.1 47.4-87.4 82.9-123s76.9-63.4 123-82.9c47.7-20.2 98.4-30.4 150.6-30.4s102.9 10.2 150.6 30.4c46.1 19.5 87.4 47.4 123 82.9s63.4 76.9 82.9 123c20.2 47.7 30.4 98.4 30.4 150.6 0 52.2-10.2 102.9-30.4 150.6-19.5 46.1-47.4 87.4-82.9 123-35.5 35.5-76.9 63.4-123 82.9C600.9 889.7 550.2 900 498 900z m0-733.8c-92.7 0-179.8 36.1-245.3 101.6S151.1 420.4 151.1 513.1s36.1 179.8 101.6 245.3S405.3 860 498 860c92.7 0 179.8-36.1 245.3-101.6s101.6-152.6 101.6-245.3-36.1-179.8-101.6-245.3C677.7 202.2 590.6 166.2 498 166.2z" fill="#FFE000" p-id="2436"></path><path d="M486.6 809.3H188.2c-19.9 0-36.1-16.3-36.1-36.1 0-19.9 16.3-36.1 36.1-36.1h298.4c19.9 0 36.1 16.3 36.1 36.1 0.1 19.8-16.2 36.1-36.1 36.1zM925 578.5H688.5c-19.9 0-36.1-16.3-36.1-36.1 0-19.9 16.3-36.1 36.1-36.1H925c19.9 0 36.1 16.3 36.1 36.1 0 19.9-16.2 36.1-36.1 36.1z" fill="#196883" p-id="2437" data-spm-anchor-id="a313x.search_index.0.i0.7f983a81QfDPqK" class="selected"></path></svg>