<?xml version="1.0" standalone="no"?><!DOCTYPE svg PUBLIC "-//W3C//DTD SVG 1.1//EN" "http://www.w3.org/Graphics/SVG/1.1/DTD/svg11.dtd"><svg t="1697681481582" class="icon" viewBox="0 0 1024 1024" version="1.1" xmlns="http://www.w3.org/2000/svg" p-id="21499" xmlns:xlink="http://www.w3.org/1999/xlink" width="200" height="200"><path d="M772.9 791.5H271.2c-35.8 0-70.7-12.6-98.4-35.5-58.3-39.1-93.1-104.2-93.1-174.3 0-115.7 94.1-209.8 209.8-209.8 15.7 0 31.3 1.8 46.8 5.4 11-105.4 100.4-187.8 208.7-187.8 115.7 0 209.8 94.1 209.8 209.8 0 9-0.6 18.2-1.9 27.5C850 430.6 928 510.9 928 609.1c0 4.8-0.3 9.4-0.6 13.6 0.4 4.6 0.6 9.2 0.6 13.7 0 85.6-69.6 155.1-155.1 155.1zM289.4 408.4c-95.6 0-173.3 77.8-173.3 173.3 0 58.2 29 112.2 77.6 144.5l1.6 1.2c21.3 17.8 48.2 27.7 75.8 27.7h501.7c65.4 0 118.6-53.2 118.6-118.6 0-3.8-0.2-7.8-0.6-11.8l-0.2-1.7 0.1-1.7c0.3-4 0.6-8.1 0.6-12.2 0-80.5-65.5-146-146-146-3.9 0-8.2 0.2-13.4 0.7l-25.5 2.3 6.2-24.9c3.5-14.2 5.3-28.4 5.3-42 0-95.6-77.8-173.3-173.3-173.3s-173.3 77.8-173.3 173.3c0.1 0.4 0.1 1.2 0.1 1.9l0.2 26-24.5-8.7c-18.7-6.6-38.2-10-57.7-10z" fill="#196883" p-id="21500"></path><path d="M481 600c-10.1 0-18.2-8.2-18.2-18.2 0-95.6-77.8-173.3-173.3-173.3-10.1 0-18.2-8.2-18.2-18.2s8.2-18.2 18.2-18.2c115.7 0 209.8 94.1 209.8 209.8 0 9.9-8.2 18.1-18.3 18.1zM651.8 504.1c-5.2 0-10.3-2.2-13.9-6.4-6.5-7.7-5.6-19.2 2.1-25.7 34.5-29.2 78.5-45.4 123.8-45.4 10.1 0 18.2 8.2 18.2 18.2s-8.2 18.2-18.2 18.2c-36.7 0-72.3 13-100.2 36.7-3.4 3-7.6 4.4-11.8 4.4zM143.5 590.8c-5 0-9.1-4.1-9.1-9.1 0-85.5 69.6-155.1 155.1-155.1 5 0 9.1 4.1 9.1 9.1s-4.1 9.1-9.1 9.1c-75.4 0-136.8 61.4-136.8 136.8-0.1 5.2-4.2 9.2-9.2 9.2z" fill="#196883" p-id="21501"></path><path d="M152.6 627.3m-9.1 0a9.1 9.1 0 1 0 18.2 0 9.1 9.1 0 1 0-18.2 0Z" fill="#196883" p-id="21502"></path></svg>