<?xml version="1.0" standalone="no"?><!DOCTYPE svg PUBLIC "-//W3C//DTD SVG 1.1//EN" "http://www.w3.org/Graphics/SVG/1.1/DTD/svg11.dtd"><svg t="1697678756768" class="icon" viewBox="0 0 1024 1024" version="1.1" xmlns="http://www.w3.org/2000/svg" p-id="5052" xmlns:xlink="http://www.w3.org/1999/xlink" width="200" height="200"><path d="M939.6 377.4c0.6-3 0-6.3-1.6-8.2L681.9 68c-2-2.4-4.9-1.7-6.4 1.6s-1 7.9 1 10.3l244.7 287.9H70.7c-2.5 0-4.6 3.3-4.6 7.4s2 7.4 4.6 7.4h864.5c2-0.1 3.8-2.1 4.4-5.2zM954.8 617.9H90.3c-2 0-3.7 2-4.4 5.1-0.6 3 0.1 6.3 1.7 8.2l256 300.3c0.8 1 1.8 1.4 2.7 1.4 1.4 0 2.8-1 3.7-3 1.5-3.3 1-7.9-1-10.3l-244.7-287h850.5c2.5 0 4.6-3.3 4.6-7.4s-2.1-7.3-4.6-7.3z" p-id="5053" fill="#196883"></path></svg>