<?xml version="1.0" standalone="no"?><!DOCTYPE svg PUBLIC "-//W3C//DTD SVG 1.1//EN" "http://www.w3.org/Graphics/SVG/1.1/DTD/svg11.dtd"><svg t="1697679962252" class="icon" viewBox="0 0 1024 1024" version="1.1" xmlns="http://www.w3.org/2000/svg" p-id="20143" xmlns:xlink="http://www.w3.org/1999/xlink" width="200" height="200"><path d="M114.86 597.77l194.46 106.35c4.63 2.53 8.42 6.32 10.95 10.95l106.35 194.46c8.77 16.03 21.65 29.19 37.25 38.05 14.63 8.31 31.35 12.7 48.35 12.7s33.72-4.39 48.35-12.7c15.6-8.86 28.49-22.02 37.25-38.05l106.35-194.46c2.53-4.63 6.32-8.42 10.95-10.95L909.6 597.77c16.03-8.77 29.19-21.65 38.05-37.25 8.31-14.63 12.7-31.35 12.7-48.35s-4.39-33.72-12.7-48.35c-8.86-15.6-22.02-28.49-38.05-37.25L708.06 316.34 597.84 114.8c-8.77-16.03-21.65-29.19-37.25-38.05-14.63-8.31-31.35-12.7-48.35-12.7s-33.72 4.39-48.35 12.7c-15.6 8.86-28.49 22.02-37.25 38.05L320.28 309.26a27.472 27.472 0 0 1-10.95 10.95L114.86 426.56c-16.03 8.77-29.19 21.65-38.05 37.25-8.31 14.63-12.7 31.35-12.7 48.35s4.39 33.72 12.7 48.35c8.87 15.61 22.02 28.49 38.05 37.26zM148.46 488l194.46-106.35a97.348 97.348 0 0 0 38.78-38.79L488.06 148.4c7.07-12.93 19.26-14.33 24.17-14.33s17.1 1.4 24.17 14.33l113.91 208.28a43.617 43.617 0 0 0 17.4 17.4L876 488c12.93 7.07 14.33 19.26 14.33 24.17s-1.4 17.1-14.33 24.17L681.55 642.69a97.435 97.435 0 0 0-38.79 38.79L536.41 875.94c-7.07 12.93-19.26 14.33-24.17 14.33s-17.1-1.4-24.17-14.33L381.71 681.48a97.348 97.348 0 0 0-38.79-38.78L148.46 536.34c-12.93-7.07-14.33-19.26-14.33-24.17s1.4-17.1 14.33-24.17z" fill="#196883" p-id="20144"></path></svg>